#N canvas 755 149 594 655 12;
#N canvas 185 287 367 387 reverb_espace 0;
#X obj 64 147 hsl 100 19 0 100 0 0 empty rev_gain_input_input input\ (dB) -2 -10 0 12 #ffe3c6 #000000 #000000 0 1;
#X floatatom 176 172 5 0 100 1 - - rev_gain_side_output 0;
#X obj 152 96 bng 19 250 50 0 rev_clear empty Clear 21 10 0 12 #ffe3c6 #000000 #000000;
#X obj 61 95 tgl 19 0 rev_on_off_output rev_on_off_input On/Off 21 10 0 12 #ffe3c6 #000000 #000000 0 1;
#N canvas 0 25 848 451 ambiente 0;
#X obj 286 297 rev1~, f 11;
#X obj 370 254 bng 19 250 50 0 empty rev_clear Clear 0 -10 0 12 #ffe3c6 #000000 #000000;
#X floatatom 323 258 5 0 0 0 dB rev_gain_side_output - 0;
#X obj 196 240 *~, f 5;
#X obj 242 218 line~;
#X obj 242 163 dbtorms;
#X floatatom 318 156 5 0 0 1 dB - - 0;
#X floatatom 324 189 5 0 0 1 rms - - 0;
#X obj 131 131 *~, f 5;
#X obj 207 104 line~;
#X obj 207 51 r rev_on_off_output;
#X obj 51 58 inlet~;
#X text 9 27 Input Signal;
#X text 381 104 Gain Input;
#X text 226 27 On/Off Input;
#X obj 286 367 outlet~;
#X obj 285 331 clip~ -1 1;
#X text 366 331 segurança;
#X text 499 101 startup_values;
#X obj 499 123 loadbang;
#X text 647 85 re iniciar sistema;
#X obj 643 102 r rev_default_bang;
#X obj 207 80 pack f 10;
#X obj 242 194 pack f 10;
#X obj 242 131 r rev_gain_input_output;
#X msg 499 147 \; rev_gain_side_input 98 \; rev_on_off_input 0 \; rev_gain_input_input 98;
#X connect 0 0 16 0;
#X connect 1 0 0 2;
#X connect 2 0 0 1;
#X connect 3 0 0 0;
#X connect 4 0 3 1;
#X connect 5 0 7 0;
#X connect 5 0 23 0;
#X connect 8 0 3 0;
#X connect 9 0 8 1;
#X connect 10 0 22 0;
#X connect 11 0 8 0;
#X connect 16 0 15 0;
#X connect 19 0 25 0;
#X connect 21 0 25 0;
#X connect 22 0 9 0;
#X connect 23 0 4 0;
#X connect 24 0 5 0;
#X connect 24 0 6 0;
#X restore 81 270 pd ambiente;
#X text 139 244 signal;
#X obj 227 96 bng 19 250 50 0 rev_default_bang empty Default 21 10 0 12 #ffe3c6 #000000 #000000;
#X floatatom 61 171 5 0 0 0 - - rev_gain_input_output 0;
#X obj 179 148 hsl 100 19 0 100 0 0 empty rev_gain_side_input amb_reverb\ (dB) -2 -10 0 12 #ffe3c6 #000000 #000000 0 1;
#X obj 128 321 throw~ output;
#X obj 95 223 r~ input;
#X connect 0 0 7 0;
#X connect 4 0 9 0;
#X connect 8 0 1 0;
#X connect 10 0 4 0;
#X coords 0 -1 1 1 260 150 1 50 50;
#X restore 20 173 pd reverb_espace;
#N canvas 262 251 398 341 feedback_delay 0;
#X obj 63 228 r~ input;
#X obj 264 63 tgl 19 0 del_on_off_output del_on_off_input On/Off 0 -10 0 12 #ffe3c6 #000000 #000000 0 1;
#X obj 67 63 hsl 162 19 0 100 0 0 empty del_gain_input Gain -2 -10 0 12 #feffc6 #000000 #000000 0 1;
#X floatatom 64 87 5 0 0 0 - - del_gain_output 0;
#X obj 61 286 throw~ output;
#X obj 264 149 tgl 19 0 act_plate_output act_plate_input Plate 0 -10 0 12 #ffe3c6 #000000 #000000 0 1;
#X obj 66 149 hsl 162 19 0 5000 0 0 empty del_time_input Delay\ (ms) -2 -10 0 12 #feffc6 #000000 #000000 0 1;
#X obj 264 105 bng 19 250 50 0 feed_default_bang delay_feedback_preset1 Default 0 -10 0 12 #ffe3c6 #000000 #000000;
#N canvas 655 164 641 569 feedback 0;
#X obj 80 192 *~;
#X obj 80 299 *~, f 5;
#X obj 136 277 line~;
#X obj 136 222 dbtorms;
#X floatatom 221 221 5 0 0 1 dB - - 0;
#X floatatom 226 257 5 0 0 1 rms - - 0;
#X obj 118 161 line~;
#X text 137 64 On/Off Input;
#X obj 118 137 pack f 10;
#X obj 136 253 pack f 10;
#X obj 118 88 r del_on_off_output;
#X obj 136 190 r del_gain_output;
#X obj 81 442 lop~ 10000;
#X obj 81 418 revdelay~ 500;
#X msg 134 361 resize \$1;
#X floatatom 134 329 5 0 0 0 - del_time_output - 0;
#X obj 221 516 throw~ reverb_plate_all;
#X obj 221 490 *~;
#X obj 239 435 pack f 100;
#X obj 239 459 line~;
#X floatatom 250 365 5 0 0 0 - - - 0;
#X floatatom 128 114 5 0 0 0 - - - 0;
#X obj 34 151 inlet~;
#X obj 80 535 outlet~;
#X text 339 71 startup_values;
#X obj 339 93 loadbang;
#X text 487 105 re iniciar sistema;
#X obj 483 122 r feed_default_bang;
#X obj 239 341 r act_plate_output;
#X msg 339 167 \; del_gain_input 98 \; act_plate_input 1 \; act_plate_output 0 \; del_time_input 550;
#X connect 0 0 1 0;
#X connect 1 0 13 0;
#X connect 2 0 1 1;
#X connect 3 0 5 0;
#X connect 3 0 9 0;
#X connect 6 0 0 1;
#X connect 8 0 6 0;
#X connect 9 0 2 0;
#X connect 10 0 8 0;
#X connect 10 0 21 0;
#X connect 11 0 3 0;
#X connect 11 0 4 0;
#X connect 12 0 17 0;
#X connect 12 0 23 0;
#X connect 13 0 12 0;
#X connect 14 0 13 0;
#X connect 15 0 14 0;
#X connect 17 0 16 0;
#X connect 18 0 19 0;
#X connect 19 0 17 1;
#X connect 22 0 0 0;
#X connect 25 0 29 0;
#X connect 27 0 29 0;
#X connect 28 0 18 0;
#X connect 28 0 20 0;
#X restore 62 258 pd feedback;
#X floatatom 63 173 5 0 0 0 - - del_time_output 0;
#X connect 0 0 8 0;
#X connect 2 0 3 0;
#X connect 6 0 9 0;
#X connect 8 0 4 0;
#X coords 0 -1 1 1 280 180 1 50 20;
#X restore 291 45 pd feedback_delay;
#N canvas 198 208 658 674 reverb_plate_all 0;
#X floatatom 65 419 5 0 0 2 - - all_dry_wet_output 0;
#X obj 243 106 tgl 19 0 all_on_off_input all_on_off_output On/Off 21 10 0 12 #ffc7c6 #000000 #000000 0 1;
#X obj 69 106 hsl 162 19 0 100 0 0 empty all_gain_input Gain\ All\ (dB) -2 -10 0 12 #ffc7c6 #000000 #000000 0 1;
#X floatatom 66 130 5 0 0 0 - - all_gain_output 0;
#X floatatom 65 200 5 0 0 2 - - all_size_output 0;
#X floatatom 65 273 5 0 0 2 - - all_delay_time_output 0;
#X floatatom 66 344 6 0 0 2 - - all_decay_time_output 0;
#N canvas 475 230 965 495 rev_all 0;
#X obj 412 364 plate.rev~;
#X msg 412 333 wet \$1;
#X obj 43 162 *~, f 5;
#X obj 118 133 line~;
#X text 123 53 On/Off Input;
#X obj 118 109 pack f 10;
#X obj 117 258 line~;
#X obj 117 203 dbtorms;
#X obj 117 234 pack f 10;
#X obj 75 294 *~;
#X msg 338 145 size \$1;
#X obj 479 135 sig~;
#X obj 311 218 allpass.rev~ 100 1000, f 32;
#X floatatom 519 144 5 0 0 0 - - - 0;
#X floatatom 547 211 5 0 0 0 - - - 0;
#X obj 118 80 r all_on_off_input;
#X obj 117 171 r all_gain_output;
#X obj 338 117 r all_size_output;
#X obj 479 110 r all_delay_time_output;
#X obj 547 179 r all_decay_time_output;
#X obj 412 278 r all_dry_wet_output;
#X floatatom 422 306 5 0 0 0 - - - 0;
#X obj 42 22 inlet~;
#X obj 411 413 outlet~;
#X msg 311 84 clear;
#X obj 311 49 r all_clear_output;
#X obj 189 312 catch~ rev_chorus_all;
#X connect 0 0 23 0;
#X connect 0 1 23 0;
#X connect 1 0 0 0;
#X connect 2 0 9 0;
#X connect 3 0 2 1;
#X connect 5 0 3 0;
#X connect 6 0 9 1;
#X connect 7 0 8 0;
#X connect 8 0 6 0;
#X connect 9 0 12 0;
#X connect 10 0 12 0;
#X connect 11 0 12 1;
#X connect 12 0 0 0;
#X connect 15 0 5 0;
#X connect 16 0 7 0;
#X connect 17 0 10 0;
#X connect 18 0 11 0;
#X connect 18 0 13 0;
#X connect 19 0 12 2;
#X connect 19 0 14 0;
#X connect 20 0 1 0;
#X connect 20 0 21 0;
#X connect 22 0 2 0;
#X connect 24 0 12 0;
#X connect 25 0 24 0;
#X connect 26 0 0 0;
#X restore 347 143 pd rev_all;
#X obj 242 174 bng 19 250 50 0 all_default_bang rev_preset1 Preset\ 1 21 10 0 12 #ffc7c6 #000000 #000000;
#X obj 243 140 bng 19 250 50 0 all_clear_output empty Clear 21 10 0 12 #ffc7c6 #000000 #000000;
#X obj 384 174 throw~ output;
#X obj 417 100 r~ input;
#X obj 348 54 catch~ reverb_plate_all;
#X obj 68 175 hsl 162 19 0 3000 0 0 empty all_size_input Size -2 -10 0 12 #ffc7c6 #000000 #000000 0 1;
#X obj 68 247 hsl 162 19 0 3000 0 0 empty all_delay_time_input Delay\ (ms) -2 -10 0 12 #ffc7c6 #000000 #000000 0 1;
#X obj 69 319 hsl 162 19 0 1500 0 0 empty all_decay_time_input Decay\ (ms) -2 -10 0 12 #ffc7c6 #000000 #000000 0 1;
#X obj 68 392 hsl 162 19 0 1 0 0 empty all_dry_wet_input Dry/Wet -2 -10 0 12 #ffc7c6 #000000 #000000 0 1;
#X obj 241 207 bng 19 250 50 0 all_preset2_bang rev_preset2 Preset\ 2 21 10 0 12 #ffc7c6 #000000 #000000;
#X obj 346 437 r all_preset2_bang;
#X msg 346 469 \; all_decay_time_input 150 \; all_size_input 392 \; all_delay_time_input 450 \; all_gain_input 98 \; all_clear_output 1 \; all_dry_wet_input 1;
#X text 350 257 startup_values;
#X obj 350 279 loadbang;
#X text 478 246 re iniciar sistema;
#X obj 494 268 r all_default_bang;
#X msg 404 310 \; all_decay_time_input 500 \; all_size_input 1500 \; all_delay_time_input 1000 \; all_gain_input 98 \; all_clear_output 1 \; all_dry_wet_input 1;
#X connect 2 0 3 0;
#X connect 7 0 10 0;
#X connect 11 0 7 0;
#X connect 12 0 7 0;
#X connect 13 0 4 0;
#X connect 14 0 5 0;
#X connect 15 0 6 0;
#X connect 16 0 0 0;
#X connect 18 0 19 0;
#X connect 21 0 24 0;
#X connect 23 0 24 0;
#X coords 0 -1 1 1 280 400 1 50 50;
#X restore 291 234 pd reverb_plate_all;
#N canvas 0 25 611 610 control 0;
#X obj 13 101 key;
#X floatatom 13 135 5 0 0 0 - - - 0;
#X obj 13 194 tgl 19 0 reverb_all empty empty 0 -10 0 12 #fcfcfc #000000 #000000 0 1;
#X obj 68 194 tgl 19 0 reverse_all empty empty 0 -10 0 12 #fcfcfc #000000 #000000 0 1;
#X obj 123 194 tgl 19 0 delay_all empty empty 0 -10 0 12 #fcfcfc #000000 #000000 0 1;
#X obj 178 193 tgl 19 0 chorus_all empty empty 0 -10 0 12 #fcfcfc #000000 #000000 0 1;
#X obj 31 55 tgl 19 0 rev_on_off_input reverb_all Reverb 0 -10 0 12 #ffc7c6 #000000 #000000 0 1;
#X obj 91 55 tgl 19 0 all_on_off_output reverse_all Reverse 0 -10 0 12 #e3c6ff #000000 #000000 0 1;
#X obj 158 56 tgl 19 0 del_on_off_input delay_all Delay 0 -10 0 12 #feffc6 #000000 #000000 0 1;
#X obj 216 57 tgl 19 0 chorus_on_off_input chorus_all Chorus 0 -10 0 12 #ff0400 #000000 #000000 0 1;
#X obj 13 167 sel 49 50 51 52, f 32;
#X obj 189 462 ctlin 0;
#X obj 189 546 s del_time_input;
#X obj 340 513 ctlin 50;
#X obj 340 537 s delay_feedback_preset1;
#X obj 16 360 ctlin 1;
#X obj 16 434 s all_size_input;
#X obj 17 465 ctlin 2;
#X obj 17 535 s all_delay_time_input;
#X obj 164 358 ctlin 3;
#X obj 164 432 s all_decay_time_input;
#X obj 333 355 ctlin 48;
#X obj 333 379 s rev_preset1;
#X obj 341 430 ctlin 49;
#X obj 341 454 s rev_preset2;
#X msg 282 64 \; knobs 16 17 18 19 20 21 22 23;
#X msg 280 15 \; faders 0 1 2 3 4 5 6 7;
#X msg 282 116 \; solo 32 33 34 35 36 37 38 39;
#X msg 283 168 \; mute 48 49 50 51 52 53 54 55;
#X msg 283 219 \; rec 64 65 66 67 68 69 70 71;
#X msg 284 266 \; channel1 0 16 32 48 64;
#X floatatom 29 411 5 0 0 0 - - - 0;
#X obj 16 387 * 30;
#X floatatom 199 523 5 0 0 0 - - - 0;
#X obj 189 494 * 40;
#X floatatom 27 512 5 0 0 0 - - - 0;
#X obj 17 488 * 20;
#X obj 164 395 * 30;
#X connect 0 0 1 0;
#X connect 1 0 10 0;
#X connect 10 0 2 0;
#X connect 10 1 3 0;
#X connect 10 2 4 0;
#X connect 10 3 5 0;
#X connect 11 0 34 0;
#X connect 13 0 14 0;
#X connect 15 0 32 0;
#X connect 17 0 36 0;
#X connect 19 0 37 0;
#X connect 21 0 22 0;
#X connect 23 0 24 0;
#X connect 32 0 16 0;
#X connect 32 0 31 0;
#X connect 34 0 12 0;
#X connect 34 0 33 0;
#X connect 36 0 18 0;
#X connect 36 0 35 0;
#X connect 37 0 20 0;
#X coords 0 -1 1 1 260 80 1 10 10;
#X restore 20 439 pd control;
#N canvas 98 147 624 340 chorus_mania 0;
#X obj 51 217 r~ input;
#X obj 50 289 throw~ output;
#X obj 331 63 loadbang;
#X obj 435 78 r chorus_default_bang;
#X obj 234 167 bng 19 250 50 0 chorus_default_bang empty Default 21 10 0 12 #ff0400 #000000 #000000;
#X obj 60 143 hsl 162 19 0 100 0 0 empty chorus_gain_input Gain\ (dB) -2 -10 0 12 #ff0400 #000000 #000000 0 1;
#X floatatom 57 171 8 0 0 0 - - chorus_gain_input_output 0;
#X obj 234 144 tgl 19 0 chorus_on_off_output chorus_on_off_input On/Off 21 10 0 12 #ff0400 #000000 #000000 0 1;
#N canvas 249 115 958 673 chorus_make 0;
#X obj 139 369 chorus~, f 18;
#X text 162 293 rate;
#X text 225 293 depth;
#X text 286 292 dry/wet;
#X floatatom 180 323 5 0 0 0 - chorus_rate - 0;
#X floatatom 235 323 5 0 0 0 - chorus_depth - 0;
#X floatatom 287 324 5 0 0 0 - chorus_wet - 0;
#X obj 138 267 *~, f 5;
#X obj 184 245 line~;
#X obj 184 190 dbtorms;
#X floatatom 260 183 5 0 0 1 dB - - 0;
#X floatatom 266 216 5 0 0 1 rms - - 0;
#X obj 73 158 *~, f 5;
#X obj 149 131 line~;
#X text 168 54 On/Off Input;
#X obj 149 107 pack f 10;
#X obj 184 221 pack f 10;
#X obj 149 78 r chorus_on_off_output;
#X obj 184 158 r chorus_gain_input_output;
#X obj 139 522 clip~ -1 1;
#X obj 139 488 delay~ 2500;
#X obj 153 429 loadbang;
#X obj 47 117 inlet~;
#X obj 138 620 outlet~;
#X obj 270 626 throw~ rev_chorus_all;
#X obj 270 599 *~;
#X obj 288 470 loadbang;
#X msg 288 494 60;
#X obj 288 518 dbtorms;
#X obj 288 542 pack f 1000;
#X obj 288 566 line~;
#X msg 153 453 ramp 250;
#X connect 0 0 20 0;
#X connect 4 0 0 1;
#X connect 5 0 0 2;
#X connect 6 0 0 3;
#X connect 7 0 0 0;
#X connect 8 0 7 1;
#X connect 9 0 11 0;
#X connect 9 0 16 0;
#X connect 12 0 7 0;
#X connect 13 0 12 1;
#X connect 15 0 13 0;
#X connect 16 0 8 0;
#X connect 17 0 15 0;
#X connect 18 0 9 0;
#X connect 18 0 10 0;
#X connect 19 0 23 0;
#X connect 19 0 25 0;
#X connect 20 0 19 0;
#X connect 21 0 31 0;
#X connect 22 0 12 0;
#X connect 25 0 24 0;
#X connect 26 0 27 0;
#X connect 27 0 28 0;
#X connect 28 0 29 0;
#X connect 29 0 30 0;
#X connect 30 0 25 1;
#X connect 31 0 20 0;
#X restore 61 254 pd chorus_make;
#X msg 331 131 \; chorus_rate 5 \; chorus_depth 1050 \; chorus_wet 0.75 \; chorus_gain_input 98;
#X connect 0 0 8 0;
#X connect 2 0 9 0;
#X connect 3 0 9 0;
#X connect 5 0 6 0;
#X connect 8 0 1 0;
#X coords 0 -1 1 1 260 100 1 50 100;
#X restore 20 331 pd chorus_mania;
#N canvas 1009 322 424 352 input_signal_interface 0;
#X obj 115 156 tgl 19 0 input_on_off_output input_on_off_input On/Off 0 -10 0 12 #ffe3c6 #000000 #000000 0 1;
#X obj 168 158 hsl 162 19 0 100 0 1 empty input_gain_input Gain -2 -10 0 12 #ffe3c6 #000000 #000000 0 1;
#X floatatom 165 182 5 0 0 0 - - input_gain_output 0;
#N canvas 227 274 718 400 make_input 0;
#X obj 142 330 throw~ input;
#X obj 64 357 throw~ input_clear;
#X obj 181 184 dbtorms;
#X obj 181 208 pack f 100;
#X obj 181 232 line~;
#X obj 142 266 *~;
#X obj 101 169 line~;
#X text 120 69 On/Off Input;
#X obj 101 145 pack f 10;
#X obj 84 228 *~;
#X obj 181 160 r input_gain_output;
#X floatatom 271 204 5 0 0 0 - - - 0;
#X obj 342 31 loadbang;
#X msg 342 59 \; input_on_off_input 0 \; input_gain_input 0 \;;
#X floatatom 111 121 5 0 0 0 - - - 0;
#X obj 101 93 r input_on_off_output;
#X obj 41 136 *~ 5;
#X obj 40 92 adc~ 1;
#X connect 2 0 3 0;
#X connect 3 0 4 0;
#X connect 4 0 5 1;
#X connect 5 0 0 0;
#X connect 5 0 1 0;
#X connect 6 0 9 1;
#X connect 8 0 6 0;
#X connect 9 0 5 0;
#X connect 10 0 2 0;
#X connect 10 0 11 0;
#X connect 12 0 13 0;
#X connect 15 0 8 0;
#X connect 15 0 14 0;
#X connect 16 0 9 0;
#X connect 17 0 16 0;
#X restore 67 277 pd make_input;
#X text 111 227 s~ input;
#X text 187 227 s~ input_clean;
#X obj 188 269 catch~ input;
#X obj 188 293 s~ input;
#X connect 1 0 2 0;
#X connect 6 0 7 0;
#X coords 0 -1 1 1 260 120 1 100 100;
#X restore 19 44 pd input_signal_interface;
#X obj 23 548 out~;
#N canvas 52 82 182 155 output 0;
#X obj 14 19 catch~ input_clear;
#X obj 37 47 catch~ output;
#X obj 37 107 outlet~;
#X connect 0 0 2 0;
#X connect 1 0 2 0;
#X restore 22 526 pd output;
#X text 18 20 Pedal MultiEffects (PME) - @Leonardo Arruda;
#X connect 7 0 6 0;
#X connect 7 0 6 1;
